name C:\Users\u0101727\Documents\MyRepositories\predictivesimulations\OpenSimModel\subject1\EMG\EMG_gait_25.mot
datacolumns 25
datarows 15
range 3.15800000 3.17200000
endheader
time	HamL_r	TA_r	PerL_r	GL_r	HamM_r	Sol_r	VL_r	VM_r	PerB_l	TA_l	PerL_l	GL_l	GM_l	Sol_l	VL_l	VM_l	AddL_l	RF_l	TFL_l	GluMed_l	HamL_l	HamM_l	GluMed_r	RF_r	
          3.15800000	          0.00338165	          0.00280796	          0.05503134	          0.00369353	          0.00532398	          0.04621194	          0.00588279	          0.00421031	          0.00666599	          0.03365153	          0.01207835	          0.00690872	          0.01808438	          0.00597598	          0.00628278	          0.00910365	          0.00937209	          0.00445069	          0.00939558	          0.00999856	          0.01887444	          0.06275816	          0.01789631	          0.00722278	
          3.15900000	          0.00337591	          0.00279399	          0.05431528	          0.00367530	          0.00517830	          0.04622448	          0.00586765	          0.00424029	          0.00667399	          0.03337978	          0.01217338	          0.00694615	          0.01788104	          0.00592114	          0.00635955	          0.00926028	          0.00945258	          0.00446164	          0.00932541	          0.00990535	          0.01858801	          0.06350306	          0.01772390	          0.00718569	
          3.16000000	          0.00337194	          0.00278338	          0.05359151	          0.00365569	          0.00504061	          0.04623639	          0.00585359	          0.00426846	          0.00668473	          0.03312450	          0.01226871	          0.00698268	          0.01768402	          0.00587154	          0.00643838	          0.00941684	          0.00953492	          0.00447355	          0.00924741	          0.00980219	          0.01829113	          0.06413665	          0.01755574	          0.00714902	
          3.16100000	          0.00336967	          0.00277617	          0.05286271	          0.00363495	          0.00491063	          0.04624797	          0.00584058	          0.00429461	          0.00669773	          0.03288521	          0.01236379	          0.00701816	          0.01749493	          0.00582736	          0.00651925	          0.00957360	          0.00961881	          0.00448641	          0.00916203	          0.00969008	          0.01798437	          0.06465772	          0.01739128	          0.00711294	
          3.16200000	          0.00336909	          0.00277235	          0.05213119	          0.00361329	          0.00478817	          0.04625962	          0.00582864	          0.00431863	          0.00671251	          0.03266120	          0.01245814	          0.00705245	          0.01731544	          0.00578877	          0.00660211	          0.00973089	          0.00970407	          0.00450018	          0.00906990	          0.00957008	          0.01766855	          0.06506652	          0.01722991	          0.00707756	
          3.16300000	          0.00337029	          0.00277194	          0.05139880	          0.00359092	          0.00467306	          0.04627197	          0.00581771	          0.00434046	          0.00672858	          0.03245177	          0.01255125	          0.00708547	          0.01714711	          0.00575585	          0.00668694	          0.00988905	          0.00979063	          0.00451482	          0.00897168	          0.00944328	          0.01734494	          0.06536550	          0.01707100	          0.00704292	
          3.16400000	          0.00337339	          0.00277492	          0.05066699	          0.00356804	          0.00456514	          0.04628584	          0.00580770	          0.00436012	          0.00674546	          0.03225635	          0.01264265	          0.00711710	          0.01699132	          0.00572865	          0.00677373	          0.01004841	          0.00987850	          0.00453035	          0.00886808	          0.00931073	          0.01701516	          0.06555936	          0.01691402	          0.00700901	
          3.16500000	          0.00337850	          0.00278126	          0.04993686	          0.00354486	          0.00446424	          0.04630215	          0.00579850	          0.00437761	          0.00676274	          0.03207460	          0.01273184	          0.00714723	          0.01684924	          0.00570720	          0.00686256	          0.01020922	          0.00996776	          0.00454674	          0.00875979	          0.00917348	          0.01668101	          0.06565517	          0.01675853	          0.00697580	
          3.16600000	          0.00338570	          0.00279090	          0.04920936	          0.00352152	          0.00437020	          0.04632203	          0.00578996	          0.00439293	          0.00678013	          0.03190647	          0.01281839	          0.00717580	          0.01672188	          0.00569148	          0.00695354	          0.01037169	          0.01005863	          0.00456399	          0.00864749	          0.00903251	          0.01634442	          0.06566232	          0.01660410	          0.00694324	
          3.16700000	          0.00339503	          0.00280375	          0.04848559	          0.00349815	          0.00428287	          0.04634701	          0.00578199	          0.00440608	          0.00679738	          0.03175214	          0.01290198	          0.00720278	          0.01661004	          0.00568148	          0.00704681	          0.01053600	          0.01015143	          0.00458207	          0.00853190	          0.00888875	          0.01600735	          0.06559183	          0.01645030	          0.00691133	
          3.16800000	          0.00340646	          0.00281970	          0.04776684	          0.00347484	          0.00420211	          0.04637873	          0.00577457	          0.00441705	          0.00681437	          0.03161194	          0.01298242	          0.00722816	          0.01651433	          0.00567710	          0.00714247	          0.01070237	          0.01024648	          0.00460094	          0.00841369	          0.00874303	          0.01567176	          0.06545504	          0.01629686	          0.00688004	
          3.16900000	          0.00341994	          0.00283863	          0.04705445	          0.00345166	          0.00412775	          0.04641863	          0.00576774	          0.00442582	          0.00683099	          0.03148631	          0.01305962	          0.00725190	          0.01643515	          0.00567822	          0.00724060	          0.01087104	          0.01034414	          0.00462056	          0.00829355	          0.00859613	          0.01533960	          0.06526285	          0.01614373	          0.00684936	
          3.17000000	          0.00343537	          0.00286041	          0.04634967	          0.00342866	          0.00405962	          0.04646791	          0.00576154	          0.00443242	          0.00684718	          0.03137573	          0.01313358	          0.00727393	          0.01637274	          0.00568467	          0.00734123	          0.01104217	          0.01044470	          0.00464086	          0.00817209	          0.00844872	          0.01501268	          0.06502542	          0.01599118	          0.00681926	
          3.17100000	          0.00345261	          0.00288491	          0.04565372	          0.00340596	          0.00399746	          0.04652763	          0.00575602	          0.00443701	          0.00686292	          0.03128064	          0.01320430	          0.00729414	          0.01632718	          0.00569632	          0.00744428	          0.01121586	          0.01054836	          0.00466174	          0.00804984	          0.00830144	          0.01469273	          0.06475218	          0.01583968	          0.00678971	
          3.17200000	          0.00347147	          0.00291199	          0.04496818	          0.00338374	          0.00394105	          0.04659857	          0.00575120	          0.00443983	          0.00687828	          0.03120135	          0.01327176	          0.00731244	          0.01629837	          0.00571307	          0.00754962	          0.01139211	          0.01065535	          0.00468308	          0.00792727	          0.00815482	          0.01438133	          0.06445166	          0.01568983	          0.00676073	
